<svg id="Ebene_1" data-name="Ebene 1" xmlns="http://www.w3.org/2000/svg" xmlns:xlink="http://www.w3.org/1999/xlink" viewBox="0 0 345.04 129.65"><defs><style>.cls-1,.cls-10,.cls-5{fill:none;}.cls-2{clip-path:url(#clip-path);}.cls-3{fill:#fff;}.cls-4{fill:#1e67ac;}.cls-5,.cls-6{stroke:#010202;}.cls-5{stroke-width:1.52px;}.cls-6{fill:#fefe01;stroke-width:0.91px;}.cls-7{fill-rule:evenodd;}.cls-8{fill:#010202;}.cls-9{clip-path:url(#clip-path-2);}.cls-10,.cls-11{stroke:#000;stroke-miterlimit:10;stroke-width:0.35px;}.cls-11,.cls-12{fill:#f2cf01;}.cls-13{isolation:isolate;}</style><clipPath id="clip-path" transform="translate(0.13 -5.67)"><rect class="cls-1" y="14.4" width="98.5" height="123.12"/></clipPath><clipPath id="clip-path-2" transform="translate(0.13 -5.67)"><rect class="cls-1" x="281.1" width="60.36" height="76.08"/></clipPath></defs><title>logo-lg</title><g id="Logo"><g class="cls-2"><g id="Wappen"><g id="wappen-2"><path id="Pfad_1" data-name="Pfad 1" class="cls-3" d="M97.86,86A48.63,48.63,0,0,1,50,134.59V17.33H97.85V86Z" transform="translate(0.13 -5.67)"/><path id="Pfad_2" data-name="Pfad 2" class="cls-4" d="M50.1,17.32V134.59h-.79A48.64,48.64,0,0,1,.7,85.94h0V17.32Z" transform="translate(0.13 -5.67)"/><path id="Pfad_3" data-name="Pfad 3" class="cls-5" d="M.65,85.94V17.32h97.2V86l0-.06a48.62,48.62,0,0,1-97.24,0h0Z" transform="translate(0.13 -5.67)"/><line id="Linie_1" data-name="Linie 1" class="cls-5" x1="50.17" y1="11.69" x2="50.17" y2="129.21"/><g id="Gruppe_1" data-name="Gruppe 1"><ellipse id="Ellipse_1" data-name="Ellipse 1" class="cls-6" cx="34.1" cy="68.87" rx="8.57" ry="8.5"/><ellipse id="Ellipse_2" data-name="Ellipse 2" class="cls-6" cx="16.96" cy="68.87" rx="8.57" ry="8.5"/><ellipse id="Ellipse_3" data-name="Ellipse 3" class="cls-6" cx="25.69" cy="54.24" rx="8.57" ry="8.5"/></g><g id="Gruppe_2" data-name="Gruppe 2"><path id="Pfad_4" data-name="Pfad 4" class="cls-7" d="M61.71,111.92c.13-5.28,2.61-7.86,7.17-9.19a1.57,1.57,0,0,0,.84-1.1c.22-2.23.39-4.47.45-6.7,0-1.56-2.73-3.74-4.31-3.42a2.13,2.13,0,0,0-1.11,1.06,18.34,18.34,0,0,0-.88,2.2l-.35-.09c-.19-1-.37-1.89-.59-3.05-2,.66-3.65,1.28-3.84,3.72-.08,1-1.15,1.83-1.77,2.75-.5-.6-.61-.93-.58-1.26.15-1.64-.09-2.74-2.23-2.78-1.09,0-2.16-.9-3.24-1.4l.2-.43,5.63-.44c-.05-.13-.61-.65-.66-.78.76-.29,2-.2,2.79-.49l2.31-.9c-1.47-3.73-4.67-4.79-7.63-5.9l1.62-2c-.73-.32-1.45-.67-2.21-.94s-1.34-.36-2.47-.65l2.55-2-2.78-1.9-.13-.16c.94-.68,1.88-1,2.22-1.68s.18-1.7.27-3.08l1.56,2.29c1.5,2.19,1.5,2.19,3.63,1.08.07,0,.21.06.71.24-.43.73-.85,1.38-1.2,2.06-.23.45-.61,1-.48,1.42a20.07,20.07,0,0,0,1.45,2.8l2.28-1.82c-.73,3.23-.82,5.85,2.44,7l2.89-2.42c-.56,4.45-.56,4.45,1.92,5.75,1.45.76,2,.47,2.08-1.14a27.85,27.85,0,0,0-.09-6.19,9.13,9.13,0,0,0-2.46-4.18c-.3-.3-2,.77-3.11,1.19-.07,0-.19,0-.5-.13a18.39,18.39,0,0,1,.83-2.54,2.73,2.73,0,0,0-1.29-4.1c-.64-.35-1.25-.77-2.1-1.3l1.89-.63.2-.57L59.49,68l1.26-1.07c-1.15-1-2.08-2.14-3.29-2.63-.9-.36-2.17.16-3.61.32l1.6-2.37a10.12,10.12,0,0,1-2.55-3.26,8.12,8.12,0,0,1,.35-2.86l3.2,4.05.26-.15c-.13-.7-.26-1.4-.4-2.1l.64-.24c.65,1.21,1.25,2.44,1.95,3.61s1.46,2.25,2.2,3.37l.37-.26c0-.36,0-.73-.07-1.09a2.63,2.63,0,0,1,1.13,1.29c.47,1.29.82,2.62,1.28,3.91S65,69.83,65.93,69a9.43,9.43,0,0,1,.84-.56c-.64,3.79.72,7.43,3,8.15.11-1.91.24-3.79.3-5.68A20.25,20.25,0,0,0,70,68.34a2.11,2.11,0,0,0-2.08-2.13h-.18a9.12,9.12,0,0,1-1.73,0,8.88,8.88,0,0,1-1.7-.75l1.32-1.12-3-3.73c2.41-.4,3.11-.25,4.22,1.37a2.14,2.14,0,0,0,2.61,1,5,5,0,0,0-3.71-6,4.1,4.1,0,0,0-.61-.11,3.3,3.3,0,0,1-3.05-2.38l2.39-.23c-.86-1.28-1.64-2.28-2.23-3.37a2.33,2.33,0,0,0-2.88-1.24,10.49,10.49,0,0,1-2.24-.11l2.69-1.68c-1.62-2.5-3.27-3.07-5.84-2.36a4.74,4.74,0,0,1-1.9-.33c0-.19.05-.37.07-.56a6.73,6.73,0,0,1,1.62-.89c1.64-.4,1.74-1.32,1.24-2.71a15.35,15.35,0,0,1-.45-2.86l.76-.22a21,21,0,0,0,2.21,4.45,24.31,24.31,0,0,0,4.06,3.3c.3-.8.58-1.57.86-2.34l.57-.13c.57,2.73.68,5.74,3.68,7.14L67.33,49a40.85,40.85,0,0,0,1.27,4.17,18.56,18.56,0,0,0,1.7,2.67l.54-.29c-.2-1.78.47-3.51-1-5.35-.66-.85-1.26-2-1.94-3-.25-.36.13-1.16.23-1.78l2.59.87c-.08-1.39-.14-2.53-.21-3.71l-3,1.19c.63-2.55.63-2.53-1.63-3.09-.76-.18-1.5-.47-2.25-.71l.12-.48L66.2,39c-1.46-1.12-2.54-2-3.68-2.8-1.45-1-1.46-1.1.2-2-1.21-3-3.18.67-4.18-.7l-2.82-6.43.49-.37a16.34,16.34,0,0,1,2.56,3,1.81,1.81,0,0,0,2.36,1h0c1.17-.23,1.22-1,1.22-1.95,0-.48.06-1,.1-1.45l.43-.14c.36.85,1.07,1.73,1,2.55-.16,1.94.82,3.13,2.15,4.3l.86-1.14h.5c.13.69.25,1.39.38,2.08a22.19,22.19,0,0,0,.77,3.6c.18.47,1.2,1.08,1.59.94a1.57,1.57,0,0,0,1.25-1.84,1.6,1.6,0,0,0-.17-.46,3.51,3.51,0,0,1-.32-2,4.79,4.79,0,0,0-1.57-4.64c-.7-.7-.86-1.91-1.26-2.89l.54-.31,2.68,2.34.77-4.41.47,0A13.08,13.08,0,0,0,73,27.27a15.29,15.29,0,0,0,1.08,1.84l2.75-1.52.36.32a10.2,10.2,0,0,1-1.73,2.39,3.08,3.08,0,0,0-1,4c.16.4.29.81.44,1.25l-1.4.71a14,14,0,0,0-.1,2.15,2,2,0,0,0,.52,1.32c1.24.86,3.69-.4,3.9-1.89.14-1,.34-2.07.51-3.11h.35l1,2c1.76-.3,2-1.5,2-2.93a13.61,13.61,0,0,1,.56-2.53l.55.07.86,1.81c1-.9,1.57-2.66,3.32-1.58l-1.58,3.27.93,1.06L83.54,37l.81,1.27L79.89,40l1.32,2.31a17.71,17.71,0,0,1-2.61-.41c-1.27-.44-4,.07-4.21,1-.27,1.38-.33,2.8-.49,4.32l3-1.69c-.33,2.56-2.81,3.24-2.66,5.48A47.51,47.51,0,0,1,74,56.7l.5.14c1-1.47,2.78-2.3,2.67-4.62-.05-1.18.73-2.4,1.13-3.6l.43.15c.13.7.27,1.41.47,2.47,1.46-1.81,3.35-2.83,2.68-5.28-.14-.52.64-1.3,1.13-2.2l.88,2.86.62.07,3.87-7c.52,2.24,1.5,3.9,3.1,4.6l-6,4.07L88,49.8v.5a11.06,11.06,0,0,1-3,.29,2.5,2.5,0,0,0-2.74.87L80.3,53.88l2.52,2.2-5.17.52c-3.46,3.76-3.88,4.67-2.76,7.33.47-1.38,1-2.76,1.51-4.4.94,1.06,1.53,2.69,3.23,1.92-.18.95-.3,1.78-.51,2.59a1.24,1.24,0,0,1-.56.75c-2.48,1-4.29,2.62-4.54,5.46-.21,2.35-.38,4.7-.58,7l.6.1c1.68-1.36,3.22-2.76,3.08-5.3a6.45,6.45,0,0,1,2-4.76c.19.87.3,1.4.41,1.92l.54.2a18.79,18.79,0,0,0,1.7-4c.2-1.14-.34-2.4-.54-3.6l.38-.1,2.3,2.63,1.61-6.92.52.12.47,1.52,2.31-1.77.46.35-2.4,5.71,1.42,1.13c-2.75.65-4.66,1.86-4.76,4.83l1.45.42A6.82,6.82,0,0,1,83.52,71c-2.67,1-4,3.28-5,5.67a3.73,3.73,0,0,0,.18,2,5.31,5.31,0,0,0,.76,1.22,15.55,15.55,0,0,1-2.45.26c-1.28-.09-3.15.84-3.17,2,0,2.54.16,5.1.27,7.65l.51.18,3.1-3.51.4.25c.08.66.15,1.32.26,2.28a16.84,16.84,0,0,0,1.89-1c2.31-1.62,2.3-1.78,1-4.26a5.63,5.63,0,0,1-.2-1.87l.82-.55,1.31,2.61c1.56-1.86,1.51-2.3,1.15-4.2a10,10,0,0,1,.38-3.13c.66.45,1.32.9,2,1.34.08,0,.2,0,0,0,.62-1.15,1.22-2.12,1.66-3.15s.82-2.34,1.21-3.51l.92.15a14.66,14.66,0,0,1,0,2.65c-.15.83-.72,1.59-.83,2.42-.14,1.07-1.15,2.34.37,3.09-.29,2-3.65,1.71-3.22,4.38l1.94-.14.23.44-3.44,2.35,3.25,2.67c-2.24-.23-2.23.95-2.37,2.33a11.72,11.72,0,0,1-2.13-1.44c-.37-.29-.91-.82-1.15-.72A33.59,33.59,0,0,0,80,91.12c.44,1.08.79,1.92,1.27,3.08-1.42-.7-2.4-1.15-3.35-1.66-1.89-1-3.77,0-3.67,2.17.12,2.47.34,4.93.68,7.38a4.09,4.09,0,0,0,1.24,1.8,25.08,25.08,0,0,1,3.28,4.18Z" transform="translate(0.13 -5.67)"/></g><ellipse id="Ellipse_4" data-name="Ellipse 4" class="cls-8" cx="71.1" cy="105.47" rx="9.64" ry="8.76"/><path id="Pfad_5" data-name="Pfad 5" class="cls-8" d="M63.4,117.12A7.13,7.13,0,0,1,50,120.5c0-3.13,0-3.13,0-6.77a7.13,7.13,0,0,1,13.37,3.39Z" transform="translate(0.13 -5.67)"/><path id="Pfad_6" data-name="Pfad 6" class="cls-8" d="M89.15,113.92c-4.81,5.76-9.79,11-16.55,14.68a45.52,45.52,0,0,1-10.42,4.21c-2,.51-4,1-6.09,1.38a13.39,13.39,0,0,1-2.43.4H50.12c-.18,0-.08-11.52-.08-12.62v-2c0-.19.7-.4.85-.47l6.66-3.22,6.05-2.92a23.86,23.86,0,0,1,3.63-1.13L74.86,110c.21-.06,1.15-.49,1.34-.33l2.66,2.16,1.51,1.24a4.32,4.32,0,0,1,1.86-1.68,5.09,5.09,0,0,1,2.77-.46,6.27,6.27,0,0,1,2.28,1.14C88,112.51,88,112.76,89.15,113.92Z" transform="translate(0.13 -5.67)"/><path id="Pfad_7" data-name="Pfad 7" class="cls-8" d="M84.32,110.62a4.21,4.21,0,0,1,4.07,3c.1.36-3.48,4.83-4,4.83l-2.08,0a4.18,4.18,0,0,1,2-7.86Z" transform="translate(0.13 -5.67)"/></g></g></g><g class="cls-9"><g id="Trompete"><g id="Trompete-2"><g id="Layer_1" data-name="Layer 1"><g id="Gruppe_3" data-name="Gruppe 3"><path id="Pfad_8" data-name="Pfad 8" d="M315,5.89a1.52,1.52,0,0,0-.69.43c0,.12-.33.21-.66.21s-.65.1-.7.26a.68.68,0,0,1-.62.26c-.33,0-.51.09-.51.27a.25.25,0,0,1-.22.26c-.14,0-.39.3-.58.65a2.78,2.78,0,0,1-.55.8.63.63,0,0,0-.23.46,1.18,1.18,0,0,1-.52.68l-.53.4v2.11c0,2,.37,4.28.74,4.55a6.67,6.67,0,0,1,.49,1l.37.88-.14-.7a9.23,9.23,0,0,1-.12-1.28c0-.3-.07-.57-.14-.57a4.3,4.3,0,0,1-.13-1.47,18.63,18.63,0,0,0-.1-2.11c-.09-.42-.06-.63.07-.63s.19-.19.19-.44.09-.44.18-.44.17-.14.17-.3c0-.63.79-2.33,1.09-2.33s.84-.19.84-.42a7.57,7.57,0,0,1,2.77-1.51,15.21,15.21,0,0,1,3.37,1.44,7.69,7.69,0,0,0,1.55,1,7.78,7.78,0,0,1,1.26,1.24A3.83,3.83,0,0,1,323,13.09c.32,1.73.32,3.08,0,3.08-.12,0-.33.27-.44.57-.58,1.58-.77,1.8-1.52,1.82a12,12,0,0,0-1.7.25c-1.23.24-1.64.14-2.37-.69-.9-1-1-1.14-1.14-1.47a.5.5,0,0,0-.39-.3c-.19,0-.26-.16-.25-.58a4.69,4.69,0,0,0-.56-2.4c-.33,0-.14-.4.48-1,.93-.93,1.42-1.14,2.35-1a6.59,6.59,0,0,0,1.17.09.88.88,0,0,1,.7.42c.18.24.49.67.7.93.49.58.51.91,0,1.81-.28.57-.42.7-.74.63-1.17-.28-1.7-.34-1.7-.14s.3.33.67.49a4.45,4.45,0,0,1,1,.54c.25.23.35.25.4.07a.54.54,0,0,1,.42-.21.51.51,0,0,0,.46-.3,2.81,2.81,0,0,1,.52-.67l.43-.35-.43-1.4c-.4-1.35-.45-1.42-1.33-1.94a7.74,7.74,0,0,1-1.26-.93c-.3-.32-.55-.37-1.74-.37-1,0-1.4.07-1.4.21A4.74,4.74,0,0,1,313.94,12c-.15,0-.22.34-.22.93,0,2.34,0,2.5.45,2.92a7.06,7.06,0,0,1,1.51,2.63.62.62,0,0,0,.4.51,1.82,1.82,0,0,1,1.05.93.84.84,0,0,0,.43.4c.71.23,1.15.52,1.24.8s.14.32.21.32c.35,0,.7-.23.7-.46s.18-.24.4-.24a1.24,1.24,0,0,0,.79-.44,1.31,1.31,0,0,1,.69-.44,4.8,4.8,0,0,0,1.38-.68l1.07-.69.34-2c.22-1.49.26-2.07.12-2.16a8.74,8.74,0,0,1-1.28-2.95c0-.3-.11-.42-.35-.42a.31.31,0,0,1-.35-.28c0-.42-.88-1.47-1.25-1.47a.53.53,0,0,1-.44-.4,1.52,1.52,0,0,0-.46-.63,1.75,1.75,0,0,1-.49-.65.61.61,0,0,0-.47-.42,4.81,4.81,0,0,1-2-.74c0-.18-1.18-.67-1.56-.65A3.7,3.7,0,0,0,315,5.89Z" transform="translate(0.13 -5.67)"/><path id="Pfad_9" data-name="Pfad 9" d="M296.7,8.39c-.28.14-.49.35-.49.43s-.16.16-.36.11a.47.47,0,0,0-.49.12,3.24,3.24,0,0,1-2,.53.61.61,0,0,0-.53.17,1.56,1.56,0,0,1-1,.28,1.35,1.35,0,0,0-.85.23,4.13,4.13,0,0,1-.89.72,5.35,5.35,0,0,0-1,.81,2,2,0,0,1-.68.47c-.28.12-.49.33-.49.49a.32.32,0,0,1-.33.27,5.93,5.93,0,0,0-2.3,2,.25.25,0,0,1-.21.25c-.46,0-1.16.86-1.88,2.21a9.65,9.65,0,0,0-.72,1.61,1.1,1.1,0,0,1-.35.56,1.28,1.28,0,0,0-.35.76.82.82,0,0,1-.32.6c-.3.17-.33.47-.37,2.72l0,2.51.84,2.72.84,2.72,1.69,1.08a3.75,3.75,0,0,0,3.66-.08,14.66,14.66,0,0,0,3.11-2.93A10.49,10.49,0,0,0,293.47,26a14.77,14.77,0,0,0,1.07-4.19,16.66,16.66,0,0,0,.21-2.23s-.63,1.39-1.35,3.14l-1.32,3.2-1.81,1.38-1.82,1.39-1.26-.23-1.26-.21-.35-2.4-.34-2.39.53-1.4c.49-1.35.58-1.47,2.37-3.07L290,17.31l2.6-.6c2.3-.53,2.58-.64,2.58-1s-.16-1.62-.35-3.16a19.65,19.65,0,0,1-.28-2.86,4.89,4.89,0,0,1,1.37.16l1.28.24,1.3,2.44,1.3,2.42L299,18.18l-.78,3.16-2.38,4-2.36,4-3.72,2.92c-1.72,1.33-3.2,2.5-3.69,2.9l-.17.13a38.46,38.46,0,0,0,4.68.16c5.12,0,7.56.06,8.21.11s.44.54-.37.93a2,2,0,0,0-.94.84c-.53,1.23-.58,2.09-.18,2.7a5.15,5.15,0,0,1,.46,1.26,2.73,2.73,0,0,0,1.31,1.9.74.74,0,0,1,.4.45,1.71,1.71,0,0,0,.6.7c.28.21.51.48.51.6s.35.34.79.46.79.3.79.39.18.15.37.15a.81.81,0,0,1,.58.27,1.62,1.62,0,0,0,.89.38,1.38,1.38,0,0,1,.85.35.74.74,0,0,0,.58.23,1.21,1.21,0,0,1,.7.26,1.55,1.55,0,0,0,.73.35,7.08,7.08,0,0,1,2.32.83c0,.07.17.14.37.14a.84.84,0,0,1,.58.26,1.63,1.63,0,0,0,.89.39,1.32,1.32,0,0,1,.84.35.74.74,0,0,0,.58.23,1.12,1.12,0,0,1,.7.26,1.87,1.87,0,0,0,.74.35,6.61,6.61,0,0,1,2.31.83c0,.07.2.14.43.14a.61.61,0,0,1,.52.26,1.14,1.14,0,0,0,.81.37c.38.07.7.19.7.28s.17.14.38.09a3.59,3.59,0,0,1,1.18.05,18.23,18.23,0,0,0,2.21.25c.77,0,2.28.17,3.34.28,2.07.22,4.45.14,4.65-.18a2.28,2.28,0,0,1,1-.3c.88-.1.9-.1.79-.6-.07-.33,0-.51.13-.51s.17-.12.1-.28a2.76,2.76,0,0,1,.09-1.07l.17-.82-1.07-1.07c-1.49-1.49-1.35-2,.3-1a6.63,6.63,0,0,1,1.92,2.16A13.14,13.14,0,0,1,335,51.37c0,.12.67.3,1.72.42l1.72.23,1.3-1.36a6.84,6.84,0,0,1,1.56-1.33c.2,0,.21-.24.13-1.35a3.88,3.88,0,0,0-.32-1.47c-.12-.07-.14-.39-.07-.83.1-.68.09-.74-.49-1a3.29,3.29,0,0,1-1.07-.89c-.44-.58-1-.79-1.18-.42a2.12,2.12,0,0,1-1,.33,2,2,0,0,0-1,.35c0,.1-.3.19-.58.19s-.51.07-.51.16-.16.19-.35.23c-.35,0-.34.09.12.65l.51.6,1.28-.23,1.26-.23.81.79.81.81-.39.95a6.89,6.89,0,0,1-.95,1.61l-.57.68L336.54,50l-1.14-.23-.35-1.24-.33-1.25-4.24-2.88c-2.36-1.6-4.23-2.91-4.22-2.95s1.23.27,2.67.65a18.48,18.48,0,0,0,3,.65c.38,0,.37-.07-.39-.73a2.68,2.68,0,0,1-.81-1,.62.62,0,0,0-.43-.48,1.45,1.45,0,0,1-.65-.52.71.71,0,0,0-.44-.35c-.13,0-.23-.16-.23-.35s.12-.36.26-.36.27-.15.27-.43.07-.44.49-.43c.66.06,1.61-.19,1.61-.4s.21-.14.47-.08c.6.1,1.4-.65,1.58-1.46.06-.3.16-.53.25-.53.28,0,.17-.52-.12-.64a.35.35,0,0,1-.2-.43c.13-.43-.51-1.38-.93-1.38a1.26,1.26,0,0,1-.7-.35,1.15,1.15,0,0,0-.72-.35,1.86,1.86,0,0,1-.73-.21,1.88,1.88,0,0,0-.83-.23l-1.45-.16c-.83-.12-1.07-.23-1.37-.65a1.13,1.13,0,0,0-.7-.51c-.18,0-.34-.1-.34-.23s-.31-.44-.71-.7l-.7-.51.66,1.34.65,1.33-.45.46-.46.47L323,32.41a17.17,17.17,0,0,1-1.93-.6,2.33,2.33,0,0,1,.25-1.1c.37-.92.44-1,1.32-1.28.51-.18.93-.43.93-.55s-.14-.17-.35-.12-.36,0-.36-.07c0-.25-.8-.58-1.4-.58-.3,0-.52-.09-.52-.18a.18.18,0,0,0-.18-.17,1.63,1.63,0,0,1-.66-.44c-.46-.42-1.06-.72-1.18-.58a7.05,7.05,0,0,0,.28,1.44,5.15,5.15,0,0,1,.26,1.46,8.21,8.21,0,0,1-1.63-.23,4.39,4.39,0,0,1-2.51-1.11c-.94-.79-1-.82-.8-1.44s.17-.64,1.28-.77,1.14-.17,1.3-.56a1.67,1.67,0,0,0,.12-.49A7.74,7.74,0,0,0,315,24.5l-1-.11-.24.93a4.28,4.28,0,0,0-.19,1.33c0,.23,0,.4-.13.4s-.19.29-.23.65a1.12,1.12,0,0,0,.43,1.14,2.32,2.32,0,0,1,.49.67.18.18,0,0,0,.17.18c.11,0,.18.28.18.61s-.07.61-.16.61-.12.16-.07.36,0,.35-.09.35-.14.15-.09.35,0,.35-.1.35a.24.24,0,0,0-.2.26c0,.21-.12.25-.47.16a1.1,1.1,0,0,1-.63-.37.55.55,0,0,0-.39-.23c-.14,0-.26-.08-.26-.17s-.16-.18-.35-.18-.35-.1-.35-.24-.23-.35-.53-.49-.52-.28-.52-.34a2.46,2.46,0,0,0-.79-.4c-.44-.17-.79-.42-.79-.56a.43.43,0,0,0-.27-.35.45.45,0,0,1-.26-.35.26.26,0,0,0-.26-.25.32.32,0,0,1-.27-.35c0-.19-.12-.35-.26-.35a.26.26,0,0,1-.26-.26.27.27,0,0,0-.27-.26.28.28,0,0,1-.26-.27c0-.14-.07-.26-.17-.26s-.18-.12-.18-.28a4.77,4.77,0,0,0-1.49-2c-.1,0-.33-.32-.51-.7a2.47,2.47,0,0,0-.75-1c-.34-.23-.42-.39-.34-.76A11.59,11.59,0,0,0,303,20.2c-.14-.91-.28-2.07-.33-2.56a21.16,21.16,0,0,0-1-4.79c-.11,0-.14-.18-.09-.4a7.43,7.43,0,0,0-.21-1.88L301,9.08l-.95-.3a6.69,6.69,0,0,0-1.53-.3c-.31,0-.58-.1-.58-.19C298,8,297.24,8.09,296.7,8.39Zm5.05,14.31,1.37,3.39,3.32,2.54c3.19,2.46,3.37,2.64,5.21,5a31.07,31.07,0,0,1,1.86,2.5s-3.4-.7-7.53-1.62l-7.49-1.66h-5.81l2.26-3,2.25-3,1.54-3.79c.86-2.09,1.58-3.79,1.6-3.79S301,20.86,301.75,22.7ZM319,31.46c1.55.35,1.62.39,2.14,1.16s.55.79.42,2.35a6.42,6.42,0,0,1-.24,1.63,15.45,15.45,0,0,1-2.3-.75c-2.07-.76-3.86-1.69-3.86-2a11.44,11.44,0,0,1,.72-1.55c.63-1.28.73-1.4,1.12-1.31l2,.47Zm11.16,2.32c1.2.4,1.23.44,1.48,1.22s.24.83-.25,1.35a1.72,1.72,0,0,1-.7.53c-.1,0-1.26-.44-2.56-1l-2.35-1,1.3,1.32,1.3,1.32-.21.69c-.11.4-.28.72-.35.72s-5.51-1.93-5.6-2a10.28,10.28,0,0,1,2-2.72c.28-.16.58-.11,1.54.28L327,35l.81-.82a4.33,4.33,0,0,1,1-.81,11.09,11.09,0,0,1,1.39.41ZM304.7,36.4l1.9.39-.79.74c-.76.7-.81.79-.84,1.75-.07,1.56.8,2.76,3.91,5.32,1.35,1.1,2.49,2.07,2.53,2.14a9.43,9.43,0,0,1-1.81-.54c-1-.39-3.28-1.2-5-1.79l-3.08-1.11-1.07-1.51-1.05-1.51.43-1.3a3,3,0,0,1,1.6-2.14A10.23,10.23,0,0,1,302.7,36Zm5.72,1.16c3.19.69,13.76,5.35,17.46,7.7L329,46l.3,1.91c.16,1,.3,2,.3,2.12a3.56,3.56,0,0,1-1.07.86l-1.09.65-2.54-.22L322.31,51l2.42-.86c1.34-.47,2.44-.88,2.48-.91s-3.16-.53-5.83-.91c-.39-.06-2.37-.62-4.39-1.27l-3.68-1.17L311,44.25a22.94,22.94,0,0,1-3.53-3.07l-1.26-1.42.37-.68c.42-.85,1.49-1.83,2-1.83a14.6,14.6,0,0,1,1.85.32Z" transform="translate(0.13 -5.67)"/><path id="Pfad_10" data-name="Pfad 10" d="M332,19.16a10.4,10.4,0,0,1-1.37.7.85.85,0,0,0-.46.28c-.26.24-.23.37.23,1.35a4.61,4.61,0,0,0,.65,1.14c.07,0,.12.26.12.49a1.15,1.15,0,0,0,.37.74,5.5,5.5,0,0,1,1.21,2.19c0,.14-.31.35-.74.46-.66.19-.79.31-1.14,1.12a2.64,2.64,0,0,0-.3,1.56c.11.58.18.65.79.76.92.15,2.09-.06,2.09-.37s.56-1.48.74-1.48.14-1-.21-1.54a2.12,2.12,0,0,1-.35-.88,2.48,2.48,0,0,0-.58-.94,10.39,10.39,0,0,1-.9-1.27c-.31-.6-.31-.61.06-1.38a14,14,0,0,0,1.08-3.64A12.41,12.41,0,0,0,332,19.16Z" transform="translate(0.13 -5.67)"/><path id="Pfad_11" data-name="Pfad 11" d="M293.84,39.16a.75.75,0,0,1-.53.18.88.88,0,0,0-.65.33,2.48,2.48,0,0,1-.75.58,3.33,3.33,0,0,0-.86.53,1.38,1.38,0,0,1-.78.31c-.33,0-.4.07-.3.3s.2.53.27.77a7.42,7.42,0,0,0,1.52,2.62c.11,0,.3.28.43.61a1.3,1.3,0,0,0,.36.62c.07,0,.14.17.14.36a1.33,1.33,0,0,0,.44.79c.53.5.76,1.29.42,1.5a4.56,4.56,0,0,1-1,.26c-.47.07-.75.19-.75.35s-.07.25-.14.25-.25.28-.37.61-.33.61-.46.61-.17.51.11.7a1.25,1.25,0,0,1,.19.7c.05.58.11.64.93.83s1.67.14,1.67-.11a1.26,1.26,0,0,1,.52-.33c.3-.14.53-.35.53-.49a1.12,1.12,0,0,1,.35-.6,1.27,1.27,0,0,0,.35-.79c0-.25.09-.44.18-.44s.17-.16.17-.35c0-.47-.37-1.23-.6-1.23s-1-1.28-1-1.74a1.75,1.75,0,0,0-.49-.84,5.74,5.74,0,0,1-.81-1c-.33-.54-.31-.56.14-1.53a2.85,2.85,0,0,0,.35-1.24.6.6,0,0,1,.18-.55,1.16,1.16,0,0,0,.3-.58,7.92,7.92,0,0,1,.23-1.75C294.29,39,294.05,38.83,293.84,39.16Z" transform="translate(0.13 -5.67)"/></g></g><g id="Layer_2" data-name="Layer 2"><line id="Linie_2" data-name="Linie 2" class="cls-10" x1="300.46" y1="13.66" x2="309.45" y2="25.29"/><path id="Pfad_13" data-name="Pfad 13" class="cls-11" d="M300.33,19.55" transform="translate(0.13 -5.67)"/><path id="Pfad_14" data-name="Pfad 14" class="cls-11" d="M303.12,26.09l-2.79-6.54-.66,1.32-1.62,3.94-.86,2.1-4.51,5.93h6.11l3.16.77,4.3,1,3.82.84,1.86.4,1.58.31-2.1-2.8L310,31.61,308.19,30Z" transform="translate(0.13 -5.67)"/></g><g id="Layer_3" data-name="Layer 3"><path id="Pfad_15" data-name="Pfad 15" class="cls-12" d="M285.91,35.35V33.21l1.47-.16,1.8-1.15L291,30.05l1.45-1.87,1-2.18.82-2.62.46-3.8-2.66,6.34-3.63,2.77-2.54-.44-.68-4.79.95-2.43.45-.64,3.34-3.1,5.12-1.36,0-.18-.63-6,2.65.4,2.6,4.86-1.54,6.34-4.74,8.07Z" transform="translate(0.13 -5.67)"/></g><g id="Layer_5" data-name="Layer 5"><path id="Pfad_16" data-name="Pfad 16" class="cls-12" d="M314.57,27.6" transform="translate(0.13 -5.67)"/><path id="Pfad_17" data-name="Pfad 17" class="cls-12" d="M317.23,25l-.11.44-.08.18-.14.18-.21.1-.43.09-.45,0-.3,0-.32,0-.33.09-.12.08-.08.1,0,.1-.05.16-.06.24,0,.18v.22l0,.09,0,.1.06.09.11.12.24.23.35.29.23.19.09.07.15.11.14.1.14.09.15.09.17.09.26.1.15.05.16.05.2,0,.24.05.29.07.2,0,.25.05.25,0,.25.05.2,0,.17,0,.21,0h.3v-.18l0-.29-.1-.45-.14-.6-.13-.52-.14-.77v-.08Z" transform="translate(0.13 -5.67)"/><path id="Pfad_18" data-name="Pfad 18" class="cls-12" d="M323.58,28.88l-.06.09-.12.1-.14.09-.2.1-.18.08-.15.06-.18.06-.22.08-.18.07-.17.09-.14.1-.08.08-.09.11-.06.1-.06.11-.07.15-.08.18-.07.17-.11.3-.06.2-.07.27v.08l0,.1v.14l0,0,0,0,.18.06.17.06.2.06.15,0,.15,0,.16,0,.21.06.2.06.17,0,.14,0,.27.07.18.05.3.08.36.1.27.07.36.1.23.07.22-.24.2-.2.27-.28.2-.2h0l-.09-.19-.22-.45-.29-.59-.72-1.44Z" transform="translate(0.13 -5.67)"/><path id="Pfad_19" data-name="Pfad 19" class="cls-12" d="M325.88,34.58,327,35l.32-.33.24-.24.28-.29.35-.31.13-.12.18-.15.17-.12.13-.07.19,0,.28.08.3.09.44.13.38.13.35.12.35.15.18.11.08.07.05.06.06.08.06.1.07.19.1.29.1.35.05.23v.28l0,0-.08.14-.2.23-.3.3-.1.09-.05,0-.09.07-.09,0-.08,0h-.07l-.26-.07-.27-.1-.54-.21-.59-.22-.69-.28-.45-.18-.61-.26-.49-.2-.67-.28-.35-.14" transform="translate(0.13 -5.67)"/><path id="Pfad_20" data-name="Pfad 20" class="cls-12" d="M327.21,49.27l-1.43.54-1.37.49-1,.35-1.11.39.85.08,1.6.14,2.63.24.57-.34.32-.2.51-.33.36-.25.26-.23.13-.17" transform="translate(0.13 -5.67)"/><path id="Pfad_21" data-name="Pfad 21" class="cls-12" d="M334.59,44.7h-.06l.06.12s.14.22.17.25l.51.62.17.2,1.87-.34.67-.12L339.6,47l-.09.22-.33.81-.3.6-.38.61-.47.6-.34.4-.62-.12-.52-.1-.59-.12-.55-.11-.31-1.1-.38-1.39L333,46.15l-1.84-1.25-1.77-1.2-1.64-1.13-1.48-1.08,1.18.27,1.8.46,1.38.34,1.12.22H332l.21,0Z" transform="translate(0.13 -5.67)"/></g><g id="Layer_4" data-name="Layer 4"><path id="Pfad_22" data-name="Pfad 22" class="cls-11" d="M302.7,36l3.9.77-1.38,1.35-.22.62,0,.93.16.8.38.76.57.76,1.5,1.49,3.83,3.25-4.36-1.47-1.84-.67-3.65-1.31-2.13-3,.34-1,.56-1.42.75-.72Z" transform="translate(0.13 -5.67)"/></g></g></g></g><g id="Musikverein_Gamshurst_e.V." data-name="Musikverein Gamshurst e.V." class="cls-13"><g class="cls-13"><path class="cls-3" d="M129.6,22.13V41.67h-3.92V28l-5,13.63h-3.41l-5-13.58V41.67h-3.95V22.13h4.79L119,36.83l5.83-14.7Z" transform="translate(0.13 -5.67)"/><path class="cls-3" d="M148,26.16V41.67h-4V38.54A5,5,0,0,1,142,41a6,6,0,0,1-3.26.88,5.47,5.47,0,0,1-4.28-1.77,7,7,0,0,1-1.6-4.92v-9h3.92v8.57a4.07,4.07,0,0,0,1,2.87,3.36,3.36,0,0,0,2.58,1,3.49,3.49,0,0,0,2.71-1.09,4.43,4.43,0,0,0,1-3.14V26.16Z" transform="translate(0.13 -5.67)"/><path class="cls-3" d="M161.49,27.39a6.17,6.17,0,0,1,2.13,3.81h-3.7a3.08,3.08,0,0,0-1-1.79,3,3,0,0,0-2-.67,2.39,2.39,0,0,0-1.57.47,1.62,1.62,0,0,0-.56,1.29,1.31,1.31,0,0,0,.45,1,3.25,3.25,0,0,0,1.12.61c.45.15,1.09.33,1.93.53a20.83,20.83,0,0,1,2.87.83,4.76,4.76,0,0,1,1.9,1.37,3.76,3.76,0,0,1,.8,2.54,3.93,3.93,0,0,1-1.55,3.22,6.57,6.57,0,0,1-4.19,1.23,7.87,7.87,0,0,1-4.84-1.36A5.67,5.67,0,0,1,151,36.63h3.78a2.53,2.53,0,0,0,1,1.81,3.66,3.66,0,0,0,2.27.66,2.22,2.22,0,0,0,1.54-.49,1.64,1.64,0,0,0,.53-1.28,1.39,1.39,0,0,0-.46-1.09,3.13,3.13,0,0,0-1.15-.64c-.45-.15-1.1-.33-1.94-.54a22,22,0,0,1-2.82-.79A4.43,4.43,0,0,1,151.93,33a3.59,3.59,0,0,1-.77-2.46,4,4,0,0,1,1.54-3.28A6.51,6.51,0,0,1,157,26,6.86,6.86,0,0,1,161.49,27.39Z" transform="translate(0.13 -5.67)"/><path class="cls-3" d="M167,20.16a2.84,2.84,0,0,1,3.52,0,2,2,0,0,1,.67,1.55,1.93,1.93,0,0,1-.67,1.52,2.84,2.84,0,0,1-3.52,0,1.94,1.94,0,0,1-.68-1.52A2,2,0,0,1,167,20.16Zm3.72,6V41.67h-3.95V26.16Z" transform="translate(0.13 -5.67)"/><path class="cls-3" d="M183.35,41.67l-5.12-6.77v6.77h-3.95V21h3.95V32.6l5.1-6.44H188l-6.52,7.73,6.69,7.78Z" transform="translate(0.13 -5.67)"/><path class="cls-3" d="M196.82,37.72l3.92-11.56h4.2L199.2,41.67h-4.81l-5.74-15.51h4.23Z" transform="translate(0.13 -5.67)"/><path class="cls-3" d="M221.58,34.67H210.21a4.24,4.24,0,0,0,1.12,3,3.58,3.58,0,0,0,2.57,1,3.7,3.7,0,0,0,2.28-.68,3,3,0,0,0,1.17-1.82h4.17a6.64,6.64,0,0,1-1.32,2.92,6.84,6.84,0,0,1-2.59,2,8.83,8.83,0,0,1-7.54-.24,6.77,6.77,0,0,1-2.75-2.76,8.68,8.68,0,0,1-1-4.22,8.83,8.83,0,0,1,1-4.25,6.69,6.69,0,0,1,2.75-2.75,8.28,8.28,0,0,1,4-1,8.13,8.13,0,0,1,4,1,6.71,6.71,0,0,1,2.66,2.62,7.84,7.84,0,0,1,.8,5.13Zm-4.83-4.62a3.83,3.83,0,0,0-2.65-1,3.91,3.91,0,0,0-2.69,1,4,4,0,0,0-1.2,2.89h7.53A3.55,3.55,0,0,0,216.75,30.05Z" transform="translate(0.13 -5.67)"/><path class="cls-3" d="M230.76,26.79a6.07,6.07,0,0,1,3.19-.85v4.23H232.8q-4.34,0-4.34,4v7.47h-4V26.16h4v3A6.53,6.53,0,0,1,230.76,26.79Z" transform="translate(0.13 -5.67)"/><path class="cls-3" d="M250.58,34.67H239.21a4.29,4.29,0,0,0,1.12,3,3.59,3.59,0,0,0,2.58,1,3.74,3.74,0,0,0,2.28-.68,2.92,2.92,0,0,0,1.16-1.82h4.18a6.76,6.76,0,0,1-1.32,2.92,6.92,6.92,0,0,1-2.59,2,8.85,8.85,0,0,1-7.55-.24,6.75,6.75,0,0,1-2.74-2.76,8.68,8.68,0,0,1-1-4.22,8.83,8.83,0,0,1,1-4.25,6.66,6.66,0,0,1,2.74-2.75,8.32,8.32,0,0,1,4-1,8.07,8.07,0,0,1,4,1,6.58,6.58,0,0,1,2.66,2.62,7.53,7.53,0,0,1,.94,3.79A7.73,7.73,0,0,1,250.58,34.67Zm-4.83-4.62a3.8,3.8,0,0,0-2.64-1,3.89,3.89,0,0,0-2.69,1,4.05,4.05,0,0,0-1.21,2.89h7.54A3.52,3.52,0,0,0,245.75,30.05Z" transform="translate(0.13 -5.67)"/><path class="cls-3" d="M253.75,20.16a2.84,2.84,0,0,1,3.52,0,2,2,0,0,1,.68,1.55,1.94,1.94,0,0,1-.68,1.52,2.84,2.84,0,0,1-3.52,0,1.94,1.94,0,0,1-.68-1.52A2,2,0,0,1,253.75,20.16Zm3.72,6V41.67h-4V26.16Z" transform="translate(0.13 -5.67)"/><path class="cls-3" d="M274.58,27.7a7.16,7.16,0,0,1,1.59,5v9h-3.92V33.1a4,4,0,0,0-.95-2.87,3.37,3.37,0,0,0-2.6-1A3.51,3.51,0,0,0,266,30.3a4.49,4.49,0,0,0-1,3.14v8.23h-3.95V26.16H265v3.11a4.94,4.94,0,0,1,2-2.45,6,6,0,0,1,3.26-.88A5.49,5.49,0,0,1,274.58,27.7Z" transform="translate(0.13 -5.67)"/></g><g class="cls-13"><path class="cls-3" d="M147.85,58.49a7.9,7.9,0,0,1,3.05,4.8h-4.14a4.65,4.65,0,0,0-1.86-2.14,5.59,5.59,0,0,0-3-.8,5.84,5.84,0,0,0-3,.78,5.28,5.28,0,0,0-2,2.24,7.49,7.49,0,0,0-.73,3.42,6.7,6.7,0,0,0,1.67,4.84,6,6,0,0,0,4.55,1.74A5.55,5.55,0,0,0,146,72.11a5.8,5.8,0,0,0,2-3.5h-6.69V65.78h10v3.81a9.31,9.31,0,0,1-1.64,3.61,8.93,8.93,0,0,1-3.19,2.65,10,10,0,0,1-4.52,1,10.13,10.13,0,0,1-5.14-1.27A8.82,8.82,0,0,1,133.3,72a11.86,11.86,0,0,1,0-10.44A9,9,0,0,1,136.73,58a10,10,0,0,1,5.13-1.29A9.7,9.7,0,0,1,147.85,58.49Z" transform="translate(0.13 -5.67)"/><path class="cls-3" d="M163.64,61.89a5,5,0,0,1,2,2.49V61.16h3.92V76.67h-3.92V73.42a5,5,0,0,1-2,2.51,5.85,5.85,0,0,1-3.36.94,6.74,6.74,0,0,1-3.53-1,6.54,6.54,0,0,1-2.45-2.76,10.68,10.68,0,0,1,0-8.49,6.45,6.45,0,0,1,2.45-2.75,6.66,6.66,0,0,1,3.53-1A5.92,5.92,0,0,1,163.64,61.89Zm-5.09,3.72a4.67,4.67,0,0,0-1.12,3.31,4.61,4.61,0,0,0,1.12,3.29,3.87,3.87,0,0,0,3,1.19,3.93,3.93,0,0,0,3-1.22,5.2,5.2,0,0,0,0-6.55,3.89,3.89,0,0,0-3-1.22A3.84,3.84,0,0,0,158.55,65.61Z" transform="translate(0.13 -5.67)"/><path class="cls-3" d="M197.34,62.69a7,7,0,0,1,1.64,5v9h-3.92V68.1a3.88,3.88,0,0,0-.91-2.75,3.26,3.26,0,0,0-2.51-1,3.45,3.45,0,0,0-2.63,1,4.25,4.25,0,0,0-1,3v8.23h-3.92V68.1a3.84,3.84,0,0,0-.91-2.75,3.26,3.26,0,0,0-2.51-1,3.45,3.45,0,0,0-2.63,1,4.25,4.25,0,0,0-1,3v8.23h-4V61.16h4V64.1A4.79,4.79,0,0,1,179,61.76a5.73,5.73,0,0,1,3.09-.82,5.92,5.92,0,0,1,3.26.89,5.49,5.49,0,0,1,2.09,2.58,5.82,5.82,0,0,1,2.17-2.53,6.34,6.34,0,0,1,7.7.81Z" transform="translate(0.13 -5.67)"/><path class="cls-3" d="M212.33,62.39a6.17,6.17,0,0,1,2.13,3.81h-3.69a3.08,3.08,0,0,0-1-1.79,3,3,0,0,0-2-.67,2.36,2.36,0,0,0-1.56.47,1.59,1.59,0,0,0-.56,1.29,1.34,1.34,0,0,0,.44,1,3.34,3.34,0,0,0,1.12.61c.45.15,1.1.33,1.94.53a21.26,21.26,0,0,1,2.87.83,4.83,4.83,0,0,1,1.9,1.37,3.81,3.81,0,0,1,.8,2.54,3.91,3.91,0,0,1-1.56,3.22,6.54,6.54,0,0,1-4.18,1.23,7.9,7.9,0,0,1-4.85-1.36,5.71,5.71,0,0,1-2.21-3.88h3.78a2.58,2.58,0,0,0,1,1.81,3.64,3.64,0,0,0,2.27.66,2.24,2.24,0,0,0,1.54-.49,1.67,1.67,0,0,0,.53-1.28,1.39,1.39,0,0,0-.46-1.09,3.13,3.13,0,0,0-1.15-.64q-.69-.22-1.95-.54a22.31,22.31,0,0,1-2.81-.79A4.52,4.52,0,0,1,202.77,68,3.64,3.64,0,0,1,202,65.5a4.07,4.07,0,0,1,1.54-3.28A6.55,6.55,0,0,1,207.8,61,6.83,6.83,0,0,1,212.33,62.39Z" transform="translate(0.13 -5.67)"/><path class="cls-3" d="M231.12,62.7a7.11,7.11,0,0,1,1.6,5v9H228.8V68.1a4.09,4.09,0,0,0-1-2.87,3.41,3.41,0,0,0-2.61-1,3.53,3.53,0,0,0-2.69,1.09,4.49,4.49,0,0,0-1,3.14v8.23h-4V56h4v8.32a4.89,4.89,0,0,1,2-2.45,6,6,0,0,1,3.26-.88A5.46,5.46,0,0,1,231.12,62.7Z" transform="translate(0.13 -5.67)"/><path class="cls-3" d="M251,61.16V76.67h-3.95V73.54a5,5,0,0,1-2,2.45,6,6,0,0,1-3.26.88,5.51,5.51,0,0,1-4.29-1.77,7.07,7.07,0,0,1-1.59-4.92v-9h3.92v8.57a4.07,4.07,0,0,0,.95,2.87,3.36,3.36,0,0,0,2.58,1,3.49,3.49,0,0,0,2.71-1.09,4.43,4.43,0,0,0,1-3.14V61.16Z" transform="translate(0.13 -5.67)"/><path class="cls-3" d="M260.86,61.79a6.07,6.07,0,0,1,3.19-.85v4.23H262.9q-4.33,0-4.34,4v7.47h-3.95V61.16h3.95v3A6.53,6.53,0,0,1,260.86,61.79Z" transform="translate(0.13 -5.67)"/><path class="cls-3" d="M276.12,62.39a6.27,6.27,0,0,1,2.13,3.81h-3.7a3.08,3.08,0,0,0-1-1.79,3,3,0,0,0-2-.67,2.37,2.37,0,0,0-1.57.47,1.59,1.59,0,0,0-.56,1.29,1.31,1.31,0,0,0,.45,1,3.25,3.25,0,0,0,1.12.61c.44.15,1.09.33,1.93.53a21.26,21.26,0,0,1,2.87.83,4.76,4.76,0,0,1,1.9,1.37,3.81,3.81,0,0,1,.8,2.54,3.93,3.93,0,0,1-1.55,3.22,6.57,6.57,0,0,1-4.19,1.23,7.85,7.85,0,0,1-4.84-1.36,5.72,5.72,0,0,1-2.22-3.88h3.78a2.58,2.58,0,0,0,1,1.81,3.66,3.66,0,0,0,2.27.66,2.22,2.22,0,0,0,1.54-.49,1.67,1.67,0,0,0,.53-1.28,1.39,1.39,0,0,0-.46-1.09,3.13,3.13,0,0,0-1.15-.64c-.45-.15-1.1-.33-1.94-.54a22,22,0,0,1-2.82-.79A4.52,4.52,0,0,1,266.55,68a3.64,3.64,0,0,1-.76-2.46,4.06,4.06,0,0,1,1.53-3.28A6.55,6.55,0,0,1,271.58,61,6.86,6.86,0,0,1,276.12,62.39Z" transform="translate(0.13 -5.67)"/><path class="cls-3" d="M289.67,73.29v3.38H287.6a5.72,5.72,0,0,1-4-1.26c-.93-.84-1.39-2.24-1.39-4.2V64.49h-2.16V61.16h2.16V57.33h3.95v3.83h3.47v3.33h-3.47v6.78a2.18,2.18,0,0,0,.45,1.57,2.06,2.06,0,0,0,1.51.45Z" transform="translate(0.13 -5.67)"/><path class="cls-3" d="M313.05,69.67H301.68a4.29,4.29,0,0,0,1.12,3,3.59,3.59,0,0,0,2.58,1,3.74,3.74,0,0,0,2.28-.68,3,3,0,0,0,1.16-1.82H313a6.63,6.63,0,0,1-1.31,2.92,7,7,0,0,1-2.6,2,8.83,8.83,0,0,1-7.54-.24,6.77,6.77,0,0,1-2.75-2.76,8.68,8.68,0,0,1-1-4.22,8.83,8.83,0,0,1,1-4.25,6.69,6.69,0,0,1,2.75-2.75,8.31,8.31,0,0,1,4-1,8.13,8.13,0,0,1,4,1,6.64,6.64,0,0,1,2.66,2.62,7.53,7.53,0,0,1,.94,3.79A7.73,7.73,0,0,1,313.05,69.67Zm-4.83-4.62a3.81,3.81,0,0,0-2.65-1,3.91,3.91,0,0,0-2.69,1,4,4,0,0,0-1.2,2.89h7.53A3.48,3.48,0,0,0,308.22,65.05Z" transform="translate(0.13 -5.67)"/><path class="cls-3" d="M319.26,72.56v4.11H315V72.56Z" transform="translate(0.13 -5.67)"/><path class="cls-3" d="M324.67,56.91,330,72.56l5.32-15.65h4.23l-7,19.76h-5.07l-7-19.76Z" transform="translate(0.13 -5.67)"/><path class="cls-3" d="M344.91,72.56v4.11h-4.26V72.56Z" transform="translate(0.13 -5.67)"/></g></g></g></svg>